# This file uses centimeters as units for non-parametric coordinates.

mtllib DeathNote.mtl
g default
v -3.839283 0.515801 6.070794
v 3.839283 0.515801 6.070794
v -3.839283 0.846907 6.070794
v 3.839283 0.846907 6.070794
v -3.839283 0.846907 -6.070794
v 3.839283 0.846907 -6.070794
v -3.839283 0.515801 -6.070794
v 3.839283 0.515801 -6.070794
v -3.839283 1.233563 6.070794
v 3.839283 1.233563 6.070794
v 3.839283 1.233563 -6.070794
v -3.839283 1.233563 -6.070794
v -3.839283 1.576321 6.070794
v 3.839283 1.576321 6.070794
v 3.839283 1.576321 -6.070794
v -3.839283 1.576321 -6.070794
v -3.526977 0.862633 5.576966
v 3.526977 0.862633 5.576966
v 3.526977 1.217837 5.576966
v -3.526977 1.217837 5.576966
v 3.526977 0.862633 -5.576966
v 3.526977 1.217837 -5.576966
v -3.526977 0.862633 -5.576966
v -3.526977 1.217837 -5.576966
v -4.257235 0.515801 -6.070794
v -4.257235 0.515801 6.070794
v -4.257235 0.846907 6.070794
v -4.257235 0.846907 -6.070794
v -4.257235 1.233563 6.070794
v -4.257235 1.233563 -6.070794
v -4.257235 1.576321 6.070794
v -4.257235 1.576321 -6.070794
vt 0.061926 0.030032
vt 0.061926 0.027418
vt 0.061926 0.106210
vt 0.061926 0.103595
vt 0.941273 0.027418
vt 0.941273 0.106210
vt 0.941273 0.032646
vt 0.941273 0.100981
vt 0.022994 0.106852
vt 0.022994 0.026775
vt 0.980205 0.029621
vt 0.980205 0.104007
vt 0.006541 0.141722
vt 0.006541 0.141722
vt 0.006541 0.209700
vt 0.006541 0.209700
vt 0.006541 0.359453
vt 0.006541 0.359453
vt 1.006136 0.359453
vt 1.006136 0.359453
vt 1.006136 0.209700
vt 1.006136 0.209700
vt 1.006136 0.141722
vt 1.006136 0.141722
vt 1.006136 0.141722
vt 0.006541 0.141722
vt 0.006541 0.209700
vt 1.006136 0.209700
vt 0.006541 0.289083
vt 1.006136 0.289083
vt 0.006541 0.289083
vt 0.006541 0.289083
vt 1.006136 0.289083
vt 1.006136 0.289083
vt 0.006541 0.359453
vt 1.006136 0.359453
vt 0.047197 0.212929
vt 0.047197 0.212929
vt 0.047197 0.285855
vt 0.047197 0.285855
vt 0.965480 0.212929
vt 0.965480 0.285855
vt 0.965480 0.212929
vt 0.965480 0.285855
vt 0.004340 0.388544
vt 0.610346 0.388544
vt 0.610346 0.994549
vt 0.004340 0.994549
vt 0.626463 0.992734
vt 0.988046 0.992734
vt 0.988046 0.390360
vt 0.626463 0.390360
vn 0.000000 0.000000 1.000000
vn 0.000000 0.000000 1.000000
vn 0.000000 0.000000 1.000000
vn 0.000000 0.000000 1.000000
vn 0.000000 1.000000 0.000000
vn 0.000000 1.000000 0.000000
vn 0.000000 1.000000 0.000000
vn 0.000000 1.000000 0.000000
vn 0.000000 0.000000 -1.000000
vn 0.000000 0.000000 -1.000000
vn 0.000000 0.000000 -1.000000
vn 0.000000 0.000000 -1.000000
vn 0.000000 -1.000000 0.000000
vn 0.000000 -1.000000 0.000000
vn 0.000000 -1.000000 0.000000
vn 0.000000 -1.000000 0.000000
vn 1.000000 0.000000 0.000000
vn 1.000000 0.000000 0.000000
vn 1.000000 0.000000 0.000000
vn 1.000000 0.000000 0.000000
vn -1.000000 0.000000 0.000000
vn -1.000000 0.000000 0.000000
vn -1.000000 0.000000 0.000000
vn -1.000000 0.000000 0.000000
vn 0.000000 0.000000 1.000000
vn 0.000000 0.000000 1.000000
vn 0.000000 0.000000 1.000000
vn 0.000000 0.000000 1.000000
vn 1.000000 0.000000 0.000000
vn 1.000000 0.000000 0.000000
vn 1.000000 0.000000 0.000000
vn 1.000000 0.000000 0.000000
vn 0.000000 0.000000 -1.000000
vn 0.000000 0.000000 -1.000000
vn 0.000000 0.000000 -1.000000
vn 0.000000 0.000000 -1.000000
vn -1.000000 0.000000 0.000000
vn -1.000000 0.000000 0.000000
vn -1.000000 0.000000 0.000000
vn -1.000000 0.000000 0.000000
vn 0.000000 0.000000 1.000000
vn 0.000000 0.000000 1.000000
vn 0.000000 0.000000 1.000000
vn 0.000000 0.000000 1.000000
vn 1.000000 0.000000 0.000000
vn 1.000000 0.000000 0.000000
vn 1.000000 0.000000 0.000000
vn 1.000000 0.000000 0.000000
vn 0.000000 0.000000 -1.000000
vn 0.000000 0.000000 -1.000000
vn 0.000000 0.000000 -1.000000
vn 0.000000 0.000000 -1.000000
vn -1.000000 0.000000 0.000000
vn -1.000000 0.000000 0.000000
vn -1.000000 0.000000 0.000000
vn -1.000000 0.000000 0.000000
vn 0.000000 0.999493 0.031829
vn 0.000000 0.999493 0.031829
vn 0.000000 0.999493 0.031829
vn 0.000000 0.999493 0.031829
vn 0.000000 -0.999493 0.031829
vn 0.000000 -0.999493 0.031829
vn 0.000000 -0.999493 0.031829
vn 0.000000 -0.999493 0.031829
vn 0.845168 0.000000 0.534500
vn 0.845168 0.000000 0.534500
vn 0.845168 0.000000 0.534500
vn 0.845168 0.000000 0.534500
vn 0.050292 0.998735 0.000000
vn 0.050292 0.998735 0.000000
vn 0.050292 0.998735 0.000000
vn 0.050292 0.998735 0.000000
vn 0.050291 -0.998735 0.000000
vn 0.050291 -0.998735 0.000000
vn 0.050291 -0.998735 0.000000
vn 0.050291 -0.998735 0.000000
vn 0.000000 0.999493 -0.031829
vn 0.000000 0.999493 -0.031829
vn 0.000000 0.999493 -0.031829
vn 0.000000 0.999493 -0.031829
vn 0.845168 0.000000 -0.534500
vn 0.845168 0.000000 -0.534500
vn 0.845168 0.000000 -0.534500
vn 0.845168 0.000000 -0.534500
vn 0.000000 -0.999493 -0.031829
vn 0.000000 -0.999493 -0.031829
vn 0.000000 -0.999493 -0.031829
vn 0.000000 -0.999493 -0.031829
vn 0.000000 -1.000000 0.000000
vn 0.000000 -1.000000 0.000000
vn 0.000000 -1.000000 0.000000
vn 0.000000 -1.000000 0.000000
vn 0.000000 0.000000 1.000000
vn 0.000000 0.000000 1.000000
vn 0.000000 0.000000 1.000000
vn 0.000000 0.000000 1.000000
vn 0.000000 0.000000 -1.000000
vn 0.000000 0.000000 -1.000000
vn 0.000000 0.000000 -1.000000
vn 0.000000 0.000000 -1.000000
vn 0.000000 0.000000 1.000000
vn 0.000000 0.000000 1.000000
vn 0.000000 0.000000 1.000000
vn 0.000000 0.000000 1.000000
vn 0.000000 0.000000 -1.000000
vn 0.000000 0.000000 -1.000000
vn 0.000000 0.000000 -1.000000
vn 0.000000 0.000000 -1.000000
vn 0.000000 0.000000 1.000000
vn 0.000000 0.000000 1.000000
vn 0.000000 0.000000 1.000000
vn 0.000000 0.000000 1.000000
vn 0.000000 1.000000 0.000000
vn 0.000000 1.000000 0.000000
vn 0.000000 1.000000 0.000000
vn 0.000000 1.000000 0.000000
vn 0.000000 0.000000 -1.000000
vn 0.000000 0.000000 -1.000000
vn 0.000000 0.000000 -1.000000
vn 0.000000 0.000000 -1.000000
s off
g pCube1
usemtl lambert2SG
f 1/13/1 2/14/2 4/15/3 3/16/4
f 13/45/5 14/46/6 15/47/7 16/48/8
f 5/21/9 6/22/10 8/23/11 7/24/12
f 7/49/13 8/50/14 2/51/15 1/52/16
f 2/14/17 8/23/18 6/22/19 4/15/20
f 25/25/21 26/26/22 27/27/23 28/28/24
f 17/1/25 18/2/26 19/3/27 20/4/28
f 18/2/29 21/5/30 22/6/31 19/3/32
f 21/5/33 23/7/34 24/8/35 22/6/36
f 28/28/37 27/27/38 29/29/39 30/30/40
f 9/31/41 10/32/42 14/18/43 13/17/44
f 10/32/45 11/33/46 15/19/47 14/18/48
f 11/33/49 12/34/50 16/20/51 15/19/52
f 30/30/53 29/29/54 31/35/55 32/36/56
f 3/16/57 4/15/58 18/37/59 17/38/60
f 10/32/61 9/31/62 20/39/63 19/40/64
f 9/9/65 3/10/66 17/1/67 20/4/68
f 4/15/69 6/22/70 21/41/71 18/37/72
f 11/33/73 10/32/74 19/40/75 22/42/76
f 6/22/77 5/21/78 23/43/79 21/41/80
f 5/11/81 12/12/82 24/8/83 23/7/84
f 12/34/85 11/33/86 22/42/87 24/44/88
f 7/24/89 1/13/90 26/26/91 25/25/92
f 1/13/93 3/16/94 27/27/95 26/26/96
f 5/21/97 7/24/98 25/25/99 28/28/100
f 3/16/101 9/31/102 29/29/103 27/27/104
f 12/34/105 5/21/106 28/28/107 30/30/108
f 9/31/109 13/17/110 31/35/111 29/29/112
f 13/17/113 16/20/114 32/36/115 31/35/116
f 16/20/117 12/34/118 30/30/119 32/36/120
